<svg width="512" height="512" viewBox="0 0 512 512" fill="none" xmlns="http://www.w3.org/2000/svg">
  <rect width="512" height="512" rx="64" fill="#00A99D"/>
  <path d="M128 256C128 185.31 185.31 128 256 128C326.69 128 384 185.31 384 256C384 326.69 326.69 384 256 384C185.31 384 128 326.69 128 256Z" fill="white"/>
  <path d="M256 192C228.28 192 206 214.28 206 242C206 269.72 228.28 292 256 292C283.72 292 306 269.72 306 242C306 214.28 283.72 192 256 192ZM256 276C237.22 276 222 260.78 222 242C222 223.22 237.22 208 256 208C274.78 208 290 223.22 290 242C290 260.78 274.78 276 256 276Z" fill="#00A99D"/>
  <path d="M256 224C244.95 224 236 232.95 236 244C236 255.05 244.95 264 256 264C267.05 264 276 255.05 276 244C276 232.95 267.05 224 256 224Z" fill="#00A99D"/>
  <text x="256" y="440" text-anchor="middle" fill="white" font-family="Arial, sans-serif" font-size="42" font-weight="bold">ARISAN</text>
  <text x="256" y="480" text-anchor="middle" fill="white" font-family="Arial, sans-serif" font-size="28">KELUARGA</text>
</svg>